<svg width="64" height="64" viewBox="0 0 64 64" fill="none" xmlns="http://www.w3.org/2000/svg">
<rect opacity="0.5" width="64" height="64" rx="16" fill="white" fill-opacity="0.25"/>
<g clip-path="url(#clip0_4_319)">
<path fill-rule="evenodd" clip-rule="evenodd" d="M48.25 30.75V23.25C48.25 21.5925 47.5913 20.0025 46.4194 18.8306C45.2475 17.6588 43.6575 17 42 17C36.4513 17 27.5487 17 22 17C20.3425 17 18.7525 17.6588 17.5806 18.8306C16.4087 20.0025 15.75 21.5925 15.75 23.25C15.75 28.7987 15.75 37.7013 15.75 43.25C15.75 44.9075 16.4087 46.4975 17.5806 47.6694C18.7525 48.8413 20.3425 49.5 22 49.5C27.5487 49.5 36.4513 49.5 42 49.5C43.6575 49.5 45.2475 48.8413 46.4194 47.6694C47.5913 46.4975 48.25 44.9075 48.25 43.25C48.25 42.85 48.25 36.1825 48.25 35.75C48.25 35.06 47.69 34.5 47 34.5C46.31 34.5 45.75 35.06 45.75 35.75V43.25C45.75 44.2444 45.355 45.1981 44.6519 45.9019C43.9481 46.605 42.9944 47 42 47C36.4513 47 27.5487 47 22 47C21.0056 47 20.0519 46.605 19.3481 45.9019C18.645 45.1981 18.25 44.2444 18.25 43.25C18.25 37.7013 18.25 28.7987 18.25 23.25C18.25 22.2556 18.645 21.3019 19.3481 20.5981C20.0519 19.895 21.0056 19.5 22 19.5C27.5487 19.5 36.4513 19.5 42 19.5C42.9944 19.5 43.9481 19.895 44.6519 20.5981C45.355 21.3019 45.75 22.2556 45.75 23.25C45.75 27.3269 45.75 25.7131 45.75 30.75C45.75 31.44 46.31 32 47 32C47.69 32 48.25 31.44 48.25 30.75Z" fill="white"/>
<path fill-rule="evenodd" clip-rule="evenodd" d="M47 23.2495C47 21.9234 46.4731 20.6516 45.5356 19.7139C44.5981 18.7764 43.3263 18.2495 42 18.2495C36.4513 18.2495 27.5487 18.2495 22 18.2495C20.6737 18.2495 19.4019 18.7764 18.4644 19.7139C17.5269 20.6516 17 21.9234 17 23.2495C17 25.7494 17 28.2494 17 28.2494H47V23.2495Z" fill="#DB2A6B"/>
<path fill-rule="evenodd" clip-rule="evenodd" d="M48.25 23.2494C48.25 21.5918 47.5913 20.0022 46.4194 18.8301C45.2475 17.658 43.6575 16.9995 42 16.9995C36.4513 16.9995 27.5487 16.9995 22 16.9995C20.3425 16.9995 18.7525 17.658 17.5806 18.8301C16.4087 20.0022 15.75 21.5918 15.75 23.2494C15.75 25.7494 15.75 28.2494 15.75 28.2494C15.75 28.9398 16.3094 29.4994 17 29.4994H47C47.6906 29.4994 48.25 28.9398 48.25 28.2494V23.2494ZM45.75 26.9994V23.2494C45.75 22.2549 45.355 21.3011 44.6519 20.5978C43.9481 19.8945 42.9944 19.4995 42 19.4995C36.4513 19.4995 27.5487 19.4995 22 19.4995C21.0056 19.4995 20.0519 19.8945 19.3481 20.5978C18.645 21.3011 18.25 22.2549 18.25 23.2494V26.9994H45.75Z" fill="white"/>
<path fill-rule="evenodd" clip-rule="evenodd" d="M24.5009 24.5H39.501C40.191 24.5 40.7512 23.94 40.7512 23.25C40.7512 22.56 40.191 22 39.501 22H24.5009C23.8109 22 23.2507 22.56 23.2507 23.25C23.2507 23.94 23.8109 24.5 24.5009 24.5Z" fill="white"/>
<path fill-rule="evenodd" clip-rule="evenodd" d="M25.75 28.25V48.25C25.75 48.94 26.31 49.5 27 49.5C27.69 49.5 28.25 48.94 28.25 48.25V28.25C28.25 27.56 27.69 27 27 27C26.31 27 25.75 27.56 25.75 28.25Z" fill="white"/>
<path fill-rule="evenodd" clip-rule="evenodd" d="M35.75 28.25V48.25C35.75 48.94 36.31 49.5 37 49.5C37.69 49.5 38.25 48.94 38.25 48.25V28.25C38.25 27.56 37.69 27 37 27C36.31 27 35.75 27.56 35.75 28.25Z" fill="white"/>
<path fill-rule="evenodd" clip-rule="evenodd" d="M47 37H17C16.31 37 15.7503 37.56 15.7503 38.25C15.7503 38.94 16.31 39.5 17 39.5H47C47.69 39.5 48.2497 38.94 48.2497 38.25C48.2497 37.56 47.69 37 47 37Z" fill="white"/>
<path fill-rule="evenodd" clip-rule="evenodd" d="M25.75 19.5002V15.7502C25.75 15.0602 25.19 14.5005 24.5 14.5005C23.81 14.5005 23.25 15.0602 23.25 15.7502V19.5002C23.25 20.1902 23.81 20.7498 24.5 20.7498C25.19 20.7498 25.75 20.1902 25.75 19.5002Z" fill="white"/>
<path fill-rule="evenodd" clip-rule="evenodd" d="M40.75 19.5002V15.7502C40.75 15.0602 40.19 14.5005 39.5 14.5005C38.81 14.5005 38.25 15.0602 38.25 15.7502V19.5002C38.25 20.1902 38.81 20.7498 39.5 20.7498C40.19 20.7498 40.75 20.1902 40.75 19.5002Z" fill="white"/>
</g>
<defs>
<clipPath id="clip0_4_319">
<rect width="40" height="40" fill="white" transform="translate(12 12)"/>
</clipPath>
</defs>
</svg>
