<svg width="64" height="64" viewBox="0 0 64 64" fill="none" xmlns="http://www.w3.org/2000/svg">
<rect opacity="0.5" width="64" height="64" rx="16" fill="white" fill-opacity="0.25"/>
<g clip-path="url(#clip0_4_307)">
<path fill-rule="evenodd" clip-rule="evenodd" d="M43.4872 35.7067C41.9226 36.5322 40.1408 36.9994 38.2508 36.9994C32.0418 36.9994 27.0009 31.9585 27.0009 25.7495C27.0009 19.5404 32.0418 14.4995 38.2508 14.4995C43.984 14.4995 48.7208 18.7977 49.4135 24.3445C49.499 25.029 49.0126 25.6545 48.3281 25.7399C47.6435 25.8254 47.0185 25.339 46.9331 24.6545C46.394 20.3409 42.7095 16.9995 38.2508 16.9995C33.4218 16.9995 29.5009 20.9204 29.5009 25.7495C29.5009 30.5785 33.4218 34.4994 38.2508 34.4994C39.8436 34.4994 41.3376 34.0731 42.6245 33.3281C42.7535 33.2535 43.094 33.0994 43.6249 33.1731C44.1063 33.2394 45.2899 33.5649 46.3849 33.8835C46.0663 32.7885 45.7408 31.6049 45.6744 31.1235C45.6008 30.5926 45.7549 30.2522 45.8294 30.1231C46.0322 29.7731 46.2113 29.4081 46.3644 29.0299C46.6235 28.3904 47.3531 28.0817 47.9922 28.3408C48.6317 28.5999 48.9403 29.3295 48.6812 29.969C48.5403 30.3167 48.3822 30.6563 48.2081 30.9858L49.4435 35.3749C49.5831 35.819 49.464 36.304 49.1349 36.6335C48.8053 36.9626 48.3203 37.0817 47.8762 36.9422L43.4872 35.7067Z" fill="white"/>
<path fill-rule="evenodd" clip-rule="evenodd" d="M34.5 24.5H42C42.69 24.5 43.25 23.94 43.25 23.25C43.25 22.56 42.69 22 42 22H34.5C33.81 22 33.25 22.56 33.25 23.25C33.25 23.94 33.81 24.5 34.5 24.5Z" fill="white"/>
<path fill-rule="evenodd" clip-rule="evenodd" d="M34.5 29.5H42C42.69 29.5 43.25 28.94 43.25 28.25C43.25 27.56 42.69 27 42 27H34.5C33.81 27 33.25 27.56 33.25 28.25C33.25 28.94 33.81 29.5 34.5 29.5Z" fill="white"/>
<path fill-rule="evenodd" clip-rule="evenodd" d="M15.7069 37.5438C14.9362 36.0731 14.5 34.3994 14.5 32.625C14.5 26.7606 19.2606 22 25.125 22C26.4438 22 27.7062 22.2412 28.8719 22.6806C29.4412 22.8956 29.7731 23.4894 29.6581 24.0869C29.5544 24.625 29.5 25.1813 29.5 25.75C29.5 29.3256 31.6494 32.4025 34.725 33.76C35.2819 34.0056 35.5806 34.6169 35.4331 35.2069C34.2781 39.825 30.0981 43.25 25.125 43.25C23.3506 43.25 21.6769 42.8137 20.2063 42.0431L16.1244 43.1925C15.68 43.3319 15.1956 43.2131 14.8662 42.8838C14.5369 42.5544 14.4181 42.07 14.5575 41.6256L15.7069 37.5438ZM27.0463 24.7294C26.4306 24.5794 25.7869 24.5 25.125 24.5C20.6406 24.5 17 28.1406 17 32.625C17 34.1038 17.3956 35.4913 18.0875 36.6863C18.1613 36.8131 18.3156 37.15 18.2431 37.6738C18.1831 38.1069 17.9 39.1456 17.6131 40.1369C18.6044 39.85 19.6431 39.5669 20.0762 39.5069C20.6 39.4344 20.9369 39.5888 21.0637 39.6625C22.2587 40.3544 23.6462 40.75 25.125 40.75C28.5819 40.75 31.5369 38.5869 32.71 35.5413C29.3012 33.6075 27 29.9456 27 25.75C27 25.4062 27.0156 25.0656 27.0463 24.7294Z" fill="white"/>
<path fill-rule="evenodd" clip-rule="evenodd" d="M34.2156 34.9012C35.45 35.4468 36.815 35.7499 38.25 35.7499C40.0706 35.7499 41.7788 35.2624 43.25 34.4105C43.3188 34.3705 43.705 34.4468 44.235 34.5805C45.1913 35.9824 45.75 37.6762 45.75 39.4999C45.75 41.093 45.3231 42.5874 44.5781 43.8749C44.4469 44.1005 45.75 48.2499 45.75 48.2499C45.75 48.2499 41.6006 46.9468 41.375 47.078C40.0875 47.823 38.5931 48.2499 37 48.2499C32.82 48.2499 29.32 45.3124 28.455 41.3905C31.2938 40.3099 33.4738 37.8899 34.2206 34.9037L34.2156 34.9012Z" fill="#DB2A6B"/>
<path fill-rule="evenodd" clip-rule="evenodd" d="M32.9806 34.706C32.9969 34.601 33.0275 34.496 33.0731 34.3935C33.3531 33.7635 34.09 33.4791 34.7206 33.7579C35.8006 34.2354 36.9944 34.4998 38.25 34.4998C39.8425 34.4998 41.3369 34.0735 42.6238 33.3285C42.7556 33.2523 42.9944 33.1416 43.3563 33.1504C43.5531 33.1548 43.9888 33.2291 44.54 33.3679C44.8369 33.4429 45.0956 33.6235 45.2681 33.876C46.3606 35.4791 47 37.4154 47 39.4998C47 41.1585 46.595 42.7229 45.8794 44.101L46.9425 47.8754C47.0819 48.3198 46.9631 48.8041 46.6338 49.1335C46.3044 49.4629 45.82 49.5816 45.3756 49.4423L41.6013 48.3791C40.2231 49.0948 38.6588 49.4998 37 49.4998C32.2225 49.4998 28.2231 46.1416 27.2344 41.6591C27.1013 41.0541 27.4313 40.4423 28.0106 40.2216C30.4369 39.2985 32.3088 37.2454 32.9806 34.706ZM43.4738 35.7135C41.9125 36.5348 40.135 36.9998 38.25 36.9998C37.1238 36.9998 36.0356 36.8335 35.0094 36.5248C34.0569 38.9348 32.2481 40.9148 29.9588 42.0866C31.0131 44.9535 33.77 46.9998 37 46.9998C38.365 46.9998 39.6456 46.6348 40.7488 45.996C40.8744 45.9229 41.2063 45.7691 41.7238 45.8404C42.1088 45.8935 43.005 46.1354 43.8894 46.3891C43.6356 45.5048 43.3938 44.6085 43.3406 44.2235C43.2694 43.706 43.4231 43.3741 43.4963 43.2485C44.135 42.1454 44.5 40.8648 44.5 39.4998C44.5 38.1191 44.1263 36.8248 43.4738 35.7135Z" fill="white"/>
</g>
<defs>
<clipPath id="clip0_4_307">
<rect width="40" height="40" fill="white" transform="translate(12 12)"/>
</clipPath>
</defs>
</svg>
